ffmpeg version 4.2.7-0ubuntu0.1 Copyright (c) 2000-2022 the FFmpeg developers
  built with gcc 9 (Ubuntu 9.4.0-1ubuntu1~20.04.1)
  configuration: --prefix=/usr --extra-version=0ubuntu0.1 --toolchain=hardened --libdir=/usr/lib/x86_64-linux-gnu --incdir=/usr/include/x86_64-linux-gnu --arch=amd64 --enable-gpl --disable-stripping --enable-avresample --disable-filter=resample --enable-avisynth --enable-gnutls --enable-ladspa --enable-libaom --enable-libass --enable-libbluray --enable-libbs2b --enable-libcaca --enable-libcdio --enable-libcodec2 --enable-libflite --enable-libfontconfig --enable-libfreetype --enable-libfribidi --enable-libgme --enable-libgsm --enable-libjack --enable-libmp3lame --enable-libmysofa --enable-libopenjpeg --enable-libopenmpt --enable-libopus --enable-libpulse --enable-librsvg --enable-librubberband --enable-libshine --enable-libsnappy --enable-libsoxr --enable-libspeex --enable-libssh --enable-libtheora --enable-libtwolame --enable-libvidstab --enable-libvorbis --enable-libvpx --enable-libwavpack --enable-libwebp --enable-libx265 --enable-libxml2 --enable-libxvid --enable-libzmq --enable-libzvbi --enable-lv2 --enable-omx --enable-openal --enable-opencl --enable-opengl --enable-sdl2 --enable-libdc1394 --enable-libdrm --enable-libiec61883 --enable-nvenc --enable-chromaprint --enable-frei0r --enable-libx264 --enable-shared
  libavutil      56. 31.100 / 56. 31.100
  libavcodec     58. 54.100 / 58. 54.100
  libavformat    58. 29.100 / 58. 29.100
  libavdevice    58.  8.100 / 58.  8.100
  libavfilter     7. 57.100 /  7. 57.100
  libavresample   4.  0.  0 /  4.  0.  0
  libswscale      5.  5.100 /  5.  5.100
  libswresample   3.  5.100 /  3.  5.100
  libpostproc    55.  5.100 / 55.  5.100
Routing option strict to both codec and muxer layer
[h264 @ 0x558c21a76d40] Reinit context to 1280x720, pix_fmt: yuv420p
Input #0, mov,mp4,m4a,3gp,3g2,mj2, from '/var/www/html/project/media/video/original/Sequenza_01.mp4':
  Metadata:
    major_brand     : mp42
    minor_version   : 0
    compatible_brands: mp42mp41
    creation_time   : 2023-07-02T15:10:28.000000Z
  Duration: 00:00:28.76, start: 0.000000, bitrate: 10720 kb/s
    Stream #0:0(eng): Video: h264 (Main), 1 reference frame (avc1 / 0x31637661), yuv420p(tv, bt709, left), 1280x720, 10409 kb/s, 25 fps, 25 tbr, 25k tbn, 50 tbc (default)
    Metadata:
      creation_time   : 2023-07-02T15:10:29.000000Z
      handler_name    : ?Mainconcept Video Media Handler
      encoder         : AVC Coding
    Stream #0:1(eng): Audio: aac (LC) (mp4a / 0x6134706D), 48000 Hz, stereo, fltp, 317 kb/s (default)
    Metadata:
      creation_time   : 2023-07-02T15:10:29.000000Z
      handler_name    : #Mainconcept MP4 Sound Media Handler
Input #1, png_pipe, from '/var/www/html/project/static/images/templates/logo.png':
  Duration: N/A, bitrate: N/A
    Stream #1:0: Video: png, 1 reference frame, rgba(pc), 1920x1080 [SAR 2835:2835 DAR 16:9], 25 tbr, 25 tbn, 25 tbc
[Parsed_scale_0 @ 0x558c21b63e00] w:1280 h:720 flags:'bilinear' interl:0
[Parsed_scale_2 @ 0x558c21a9dd00] w:1280 h:720 flags:'bilinear' interl:0
Stream mapping:
  Stream #0:0 (h264) -> scale (graph 0)
  Stream #1:0 (png) -> scale (graph 0)
  overlay (graph 0) -> Stream #0:0 (libx264)
  Stream #0:1 -> #0:1 (aac (native) -> aac (native))
Press [q] to stop, [?] for help
[h264 @ 0x558c21a9c680] Reinit context to 1280x720, pix_fmt: yuv420p
[graph_1_in_0_1 @ 0x558c22225b80] tb:1/48000 samplefmt:fltp samplerate:48000 chlayout:0x3
[Parsed_scale_0 @ 0x558c224f9580] w:1280 h:720 flags:'bilinear' interl:0
[Parsed_scale_2 @ 0x558c21ad2dc0] w:1280 h:720 flags:'bilinear' interl:0
[graph 0 input from stream 0:0 @ 0x558c21ad4f40] w:1280 h:720 pixfmt:yuv420p tb:1/25000 fr:25/1 sar:0/1 sws_param:flags=2
[graph 0 input from stream 1:0 @ 0x558c21ad5d80] w:1920 h:1080 pixfmt:rgba tb:1/25 fr:25/1 sar:2835/2835 sws_param:flags=2
[Parsed_scale_0 @ 0x558c224f9580] w:1280 h:720 fmt:yuv420p sar:0/1 -> w:1280 h:720 fmt:yuv420p sar:0/1 flags:0x2
[Parsed_setsar_1 @ 0x558c224fb680] w:1280 h:720 sar:0/1 dar:16/9 -> sar:1/1 dar:16/9
[Parsed_scale_2 @ 0x558c21ad2dc0] w:1920 h:1080 fmt:rgba sar:2835/2835 -> w:1280 h:720 fmt:yuva420p sar:1/1 flags:0x2
[Parsed_setsar_3 @ 0x558c21ad37c0] w:1280 h:720 sar:1/1 dar:16/9 -> sar:1/1 dar:16/9
[Parsed_overlay_4 @ 0x558c21ad41c0] main w:1280 h:720 fmt:yuv420p overlay w:1280 h:720 fmt:yuva420p
[Parsed_overlay_4 @ 0x558c21ad41c0] [framesync @ 0x558c21ad4328] Selected 1/25000 time base
[Parsed_overlay_4 @ 0x558c21ad41c0] [framesync @ 0x558c21ad4328] Sync level 2
[libx264 @ 0x558c21aed440] using SAR=1/1
[libx264 @ 0x558c21aed440] using cpu capabilities: MMX2 SSE2Fast SSSE3 SSE4.2 AVX FMA3 BMI2 AVX2
[libx264 @ 0x558c21aed440] profile High, level 3.1
[libx264 @ 0x558c21aed440] 264 - core 155 r2917 0a84d98 - H.264/MPEG-4 AVC codec - Copyleft 2003-2018 - http://www.videolan.org/x264.html - options: cabac=1 ref=1 deblock=1:0:0 analyse=0x3:0x113 me=hex subme=2 psy=1 psy_rd=1.00:0.00 mixed_ref=0 me_range=16 chroma_me=1 trellis=0 8x8dct=1 cqm=0 deadzone=21,11 fast_pskip=1 chroma_qp_offset=0 threads=22 lookahead_threads=5 sliced_threads=0 nr=0 decimate=1 interlaced=0 bluray_compat=0 constrained_intra=0 bframes=3 b_pyramid=2 b_adapt=1 b_bias=0 direct=1 weightb=1 open_gop=0 weightp=1 keyint=250 keyint_min=25 scenecut=40 intra_refresh=0 rc_lookahead=10 rc=crf mbtree=1 crf=18.0 qcomp=0.60 qpmin=0 qpmax=69 qpstep=4 ip_ratio=1.40 aq=1:1.00
Output #0, mp4, to '/var/www/html/project/media/video/watermarks/Sequenza_01.mp4':
  Metadata:
    major_brand     : mp42
    minor_version   : 0
    compatible_brands: mp42mp41
    encoder         : Lavf58.29.100
    Stream #0:0: Video: h264 (libx264), 1 reference frame (avc1 / 0x31637661), yuv420p, 1280x720 [SAR 1:1 DAR 16:9], q=-1--1, 25 fps, 12800 tbn, 25 tbc (default)
    Metadata:
      encoder         : Lavc58.54.100 libx264
    Side data:
      cpb: bitrate max/min/avg: 0/0/0 buffer size: 0 vbv_delay: -1
    Stream #0:1(eng): Audio: aac (LC) (mp4a / 0x6134706D), 48000 Hz, stereo, fltp, delay 1024, 128 kb/s (default)
    Metadata:
      creation_time   : 2023-07-02T15:10:29.000000Z
      handler_name    : #Mainconcept MP4 Sound Media Handler
      encoder         : Lavc58.54.100 aac
[Parsed_overlay_4 @ 0x558c21ad41c0] [framesync @ 0x558c21ad4328] Sync level 0
No more output streams to write to, finishing.
frame=  718 fps= 73 q=-1.0 Lsize=   32358kB time=00:00:28.73 bitrate=9224.7kbits/s speed=2.94x    
[AVIOContext @ 0x558c21a750c0] Statistics: 0 seeks, 19 writeouts
video:31880kB audio:456kB subtitle:0kB other streams:0kB global headers:0kB muxing overhead: 0.070322%
Input file #0 (/var/www/html/project/media/video/original/Sequenza_01.mp4):
  Input stream #0:0 (video): 718 packets read (37370310 bytes); 718 frames decoded; 
  Input stream #0:1 (audio): 1347 packets read (1140011 bytes); 1347 frames decoded (1379328 samples); 
  Total: 2065 packets (38510321 bytes) demuxed
Input file #1 (/var/www/html/project/static/images/templates/logo.png):
  Input stream #1:0 (video): 1 packets read (111578 bytes); 1 frames decoded; 
  Total: 1 packets (111578 bytes) demuxed
Output file #0 (/var/www/html/project/media/video/watermarks/Sequenza_01.mp4):
  Output stream #0:0 (video): 718 frames encoded; 718 packets muxed (32645223 bytes); 
  Output stream #0:1 (audio): 1347 frames encoded (1379328 samples); 1348 packets muxed (466582 bytes); 
  Total: 2066 packets (33111805 bytes) muxed
[AVIOContext @ 0x558c21ac0280] Statistics: 2 seeks, 130 writeouts
[libx264 @ 0x558c21aed440] frame I:5     Avg QP:17.41  size:160130
[libx264 @ 0x558c21aed440] frame P:187   Avg QP:20.26  size: 90010
[libx264 @ 0x558c21aed440] frame B:526   Avg QP:23.50  size: 28540
[libx264 @ 0x558c21aed440] consecutive B-frames:  1.3%  2.5%  2.1% 94.2%
[libx264 @ 0x558c21aed440] mb I  I16..4:  9.1%  9.2% 81.7%
[libx264 @ 0x558c21aed440] mb P  I16..4:  5.0%  7.4%  8.4%  P16..4: 26.6% 20.8% 27.9%  0.0%  0.0%    skip: 3.8%
[libx264 @ 0x558c21aed440] mb B  I16..4:  1.0%  0.9%  0.3%  B16..8: 33.1% 15.0%  5.9%  direct:18.0%  skip:25.9%  L0:31.8% L1:36.0% BI:32.1%
[libx264 @ 0x558c21aed440] 8x8 transform intra:34.1% inter:24.8%
[libx264 @ 0x558c21aed440] coded y,uvDC,uvAC intra: 63.4% 56.1% 12.6% inter: 45.8% 14.8% 0.6%
[libx264 @ 0x558c21aed440] i16 v,h,dc,p: 16% 58% 11% 14%
[libx264 @ 0x558c21aed440] i8 v,h,dc,ddl,ddr,vr,hd,vl,hu: 17% 48% 18%  2%  2%  2%  3%  2%  4%
[libx264 @ 0x558c21aed440] i4 v,h,dc,ddl,ddr,vr,hd,vl,hu: 19% 30% 13%  5%  7%  6%  7%  5%  8%
[libx264 @ 0x558c21aed440] i8c dc,h,v,p: 39% 37% 15%  9%
[libx264 @ 0x558c21aed440] Weighted P-Frames: Y:1.1% UV:0.0%
[libx264 @ 0x558c21aed440] kb/s:9093.19
[aac @ 0x558c21a9c200] Qavg: 599.059
[AVIOContext @ 0x558c21a7e040] Statistics: 38536135 bytes read, 0 seeks
[AVIOContext @ 0x558c21b82bc0] Statistics: 111578 bytes read, 0 seeks
